<!DOCTYPE svg PUBLIC "-//W3C//DTD SVG 1.1//EN" "http://www.w3.org/Graphics/SVG/1.1/DTD/svg11.dtd">
<!-- Uploaded to: SVG Repo, www.svgrepo.com, Transformed by: SVG Repo Mixer Tools -->
<svg fill="#ffffff" version="1.1" id="Layer_1" xmlns="http://www.w3.org/2000/svg" xmlns:xlink="http://www.w3.org/1999/xlink" width="800px" height="800px" viewBox="0 0 512 512" enable-background="new 0 0 512 512" xml:space="preserve" stroke="#ffffff" transform="matrix(-1, 0, 0, 1, 0, 0)">
<g id="SVGRepo_bgCarrier" stroke-width="0"/>
<g id="SVGRepo_tracerCarrier" stroke-linecap="round" stroke-linejoin="round"/>
<g id="SVGRepo_iconCarrier"> <path d="M256,512c141.391,0,256-114.609,256-256C512,114.609,397.391,0,256,0C114.609,0,0,114.609,0,256 C0,397.391,114.609,512,256,512z M256,40c119.297,0,216,96.703,216,216s-96.703,216-216,216S40,375.297,40,256S136.703,40,256,40z"/> <path d="M157.84,274.121l145.872,89.594c16.844,9.969,24.685,1.938,24.685-17.844V166.105c0-19.75-7.841-27.797-24.685-17.812 l-148.795,89.578C137.995,247.84,140.949,264.152,157.84,274.121z"/> </g>
</svg>